<svg xmlns="http://www.w3.org/2000/svg" version="1.1" xmlns:xlink="http://www.w3.org/1999/xlink" viewBox="0 0 700 700" style="overflow: hidden; display: block;" width="700" height="700"><defs></defs><g id="two-0" transform="matrix(1 0 0 1 0 0)" opacity="1"><path transform="matrix(1 0 0 1 350 350)" id="two-654" d="M 252.970391 104.783766 C 244.206769 143.496776 247.196216 191.139416 220.63679 220.63679 C 194.266766 249.923811 145.987375 249.46282 109.595964 264.588065 C 73.166425 279.729157 39.377853 309.944005 0 312.341653 C -39.582757 314.751777 -81.85436 299.56026 -115.176344 278.06029 C -147.195069 257.401206 -161.300396 214.919956 -190.799771 190.79977 C -224.296777 163.410917 -282.27483 163.162187 -304.968709 126.322175 C -326.857257 90.789494 -322.651849 40.067064 -310.97665 0 C -299.713931 -38.651516 -253.91911 -61.669655 -240.628747 -99.671691 C -226.094488 -141.230478 -266.262164 -204.17764 -232.860519 -232.860519 C -197.174741 -263.504842 -136.015656 -206.101102 -90.943978 -219.558183 C -54.146059 -230.544963 -34.651966 -275.611663 -0.000001 -292.165739 C 40.626007 -311.573758 91.487404 -338.519352 133.21881 -321.618659 C 174.810116 -304.774704 193.180048 -250.450868 208.148302 -208.148303 C 221.112879 -171.508433 207.752897 -127.968409 219.503859 -90.921476 C 229.943722 -58.008008 265.368333 -34.018053 271.289416 -0.000001 C 277.308859 34.583149 260.720721 70.546939 252.970391 104.783766 Z " fill="white" stroke="undefined" stroke-width="1" stroke-opacity="1" fill-opacity="1" visibility="visible" stroke-linecap="butt" stroke-linejoin="miter" stroke-miterlimit="4"></path></g></svg>